<svg width="51" height="39" viewBox="0 0 51 39" fill="none" xmlns="http://www.w3.org/2000/svg">
<path d="M25.5 27.3L35.7 19.5L25.5 11.7L21.93 14.43L26.01 17.55H15.3V21.45H26.01L21.93 24.57L25.5 27.3ZM25.5 39C21.9725 39 18.6575 38.4881 15.555 37.4644C12.4525 36.4406 9.75375 35.0513 7.45875 33.2962C5.16375 31.5412 3.34687 29.4775 2.00813 27.105C0.669375 24.7325 0 22.1975 0 19.5C0 16.8025 0.669375 14.2675 2.00813 11.895C3.34687 9.5225 5.16375 7.45875 7.45875 5.70375C9.75375 3.94875 12.4525 2.55937 15.555 1.53562C18.6575 0.511875 21.9725 0 25.5 0C29.0275 0 32.3425 0.511875 35.445 1.53562C38.5475 2.55937 41.2463 3.94875 43.5412 5.70375C45.8363 7.45875 47.6531 9.5225 48.9919 11.895C50.3306 14.2675 51 16.8025 51 19.5C51 22.1975 50.3306 24.7325 48.9919 27.105C47.6531 29.4775 45.8363 31.5412 43.5412 33.2962C41.2463 35.0513 38.5475 36.4406 35.445 37.4644C32.3425 38.4881 29.0275 39 25.5 39ZM25.5 35.1C31.195 35.1 36.0187 33.5887 39.9712 30.5662C43.9237 27.5437 45.9 23.855 45.9 19.5C45.9 15.145 43.9237 11.4562 39.9712 8.43375C36.0187 5.41125 31.195 3.9 25.5 3.9C19.805 3.9 14.9812 5.41125 11.0287 8.43375C7.07625 11.4562 5.1 15.145 5.1 19.5C5.1 23.855 7.07625 27.5437 11.0287 30.5662C14.9812 33.5887 19.805 35.1 25.5 35.1Z" fill="white"/>
</svg>
