<svg width="51" height="39" viewBox="0 0 51 39" fill="none" xmlns="http://www.w3.org/2000/svg">
<path d="M23.1818 5.31818V0H27.8182V5.31818H23.1818ZM23.1818 39V33.6818H27.8182V39H23.1818ZM44.0455 21.2727V17.7273H51V21.2727H44.0455ZM0 21.2727V17.7273H6.95455V21.2727H0ZM41.0318 10.1045L37.7864 7.62273L41.8432 4.43182L45.2045 7.00227L41.0318 10.1045ZM9.15682 34.5682L5.79545 31.9977L9.96818 28.8955L13.2136 31.3773L9.15682 34.5682ZM41.8432 34.5682L37.7864 31.3773L41.0318 28.8955L45.2045 31.9977L41.8432 34.5682ZM9.96818 10.1045L5.79545 7.00227L9.15682 4.43182L13.2136 7.62273L9.96818 10.1045ZM25.5 30.1364C21.6364 30.1364 18.3523 29.1023 15.6477 27.0341C12.9432 24.9659 11.5909 22.4545 11.5909 19.5C11.5909 16.5455 12.9432 14.0341 15.6477 11.9659C18.3523 9.89773 21.6364 8.86364 25.5 8.86364C29.3636 8.86364 32.6477 9.89773 35.3523 11.9659C38.0568 14.0341 39.4091 16.5455 39.4091 19.5C39.4091 22.4545 38.0568 24.9659 35.3523 27.0341C32.6477 29.1023 29.3636 30.1364 25.5 30.1364ZM25.5 26.5909C28.0886 26.5909 30.2812 25.904 32.0778 24.5301C33.8744 23.1562 34.7727 21.4795 34.7727 19.5C34.7727 17.5205 33.8744 15.8438 32.0778 14.4699C30.2812 13.096 28.0886 12.4091 25.5 12.4091C22.9114 12.4091 20.7188 13.096 18.9222 14.4699C17.1256 15.8438 16.2273 17.5205 16.2273 19.5C16.2273 21.4795 17.1256 23.1562 18.9222 24.5301C20.7188 25.904 22.9114 26.5909 25.5 26.5909Z" fill="black"/>
</svg>
