<svg width="100" height="40" viewBox="0 0 100 40" fill="none" xmlns="http://www.w3.org/2000/svg">
<rect width="100" height="40" rx="20" fill="#D2FF0C" fill-opacity="0.69"/>
<path d="M40.9174 23.444H35.6794L34.7794 26H32.6374L37.1194 13.472H39.4954L43.9774 26H41.8174L40.9174 23.444ZM40.3414 21.77L38.3074 15.956L36.2554 21.77H40.3414ZM45.2422 20.996C45.2422 20 45.4462 19.118 45.8542 18.35C46.2742 17.582 46.8382 16.988 47.5462 16.568C48.2662 16.136 49.0642 15.92 49.9402 15.92C50.5882 15.92 51.2242 16.064 51.8482 16.352C52.4842 16.628 52.9882 17 53.3602 17.468V12.68H55.4302V26H53.3602V24.506C53.0242 24.986 52.5562 25.382 51.9562 25.694C51.3682 26.006 50.6902 26.162 49.9222 26.162C49.0582 26.162 48.2662 25.946 47.5462 25.514C46.8382 25.07 46.2742 24.458 45.8542 23.678C45.4462 22.886 45.2422 21.992 45.2422 20.996ZM53.3602 21.032C53.3602 20.348 53.2162 19.754 52.9282 19.25C52.6522 18.746 52.2862 18.362 51.8302 18.098C51.3742 17.834 50.8822 17.702 50.3542 17.702C49.8262 17.702 49.3342 17.834 48.8782 18.098C48.4222 18.35 48.0502 18.728 47.7622 19.232C47.4862 19.724 47.3482 20.312 47.3482 20.996C47.3482 21.68 47.4862 22.28 47.7622 22.796C48.0502 23.312 48.4222 23.708 48.8782 23.984C49.3462 24.248 49.8382 24.38 50.3542 24.38C50.8822 24.38 51.3742 24.248 51.8302 23.984C52.2862 23.72 52.6522 23.336 52.9282 22.832C53.2162 22.316 53.3602 21.716 53.3602 21.032ZM57.4414 20.996C57.4414 20 57.6454 19.118 58.0534 18.35C58.4734 17.582 59.0374 16.988 59.7454 16.568C60.4654 16.136 61.2634 15.92 62.1394 15.92C62.7874 15.92 63.4234 16.064 64.0474 16.352C64.6834 16.628 65.1874 17 65.5594 17.468V12.68H67.6294V26H65.5594V24.506C65.2234 24.986 64.7554 25.382 64.1554 25.694C63.5674 26.006 62.8894 26.162 62.1214 26.162C61.2574 26.162 60.4654 25.946 59.7454 25.514C59.0374 25.07 58.4734 24.458 58.0534 23.678C57.6454 22.886 57.4414 21.992 57.4414 20.996ZM65.5594 21.032C65.5594 20.348 65.4154 19.754 65.1274 19.25C64.8514 18.746 64.4854 18.362 64.0294 18.098C63.5734 17.834 63.0814 17.702 62.5534 17.702C62.0254 17.702 61.5334 17.834 61.0774 18.098C60.6214 18.35 60.2494 18.728 59.9614 19.232C59.6854 19.724 59.5474 20.312 59.5474 20.996C59.5474 21.68 59.6854 22.28 59.9614 22.796C60.2494 23.312 60.6214 23.708 61.0774 23.984C61.5454 24.248 62.0374 24.38 62.5534 24.38C63.0814 24.38 63.5734 24.248 64.0294 23.984C64.4854 23.72 64.8514 23.336 65.1274 22.832C65.4154 22.316 65.5594 21.716 65.5594 21.032Z" fill="black"/>
</svg>
