<svg width="100" height="40" viewBox="0 0 100 40" fill="none" xmlns="http://www.w3.org/2000/svg">
<rect width="100" height="40" rx="20" fill="#D2FF0C" fill-opacity="0.69"/>
<path d="M21.2757 26L18.3957 20.996H16.8297V26H14.7777V13.49H19.0977C20.0577 13.49 20.8677 13.658 21.5277 13.994C22.1997 14.33 22.6977 14.78 23.0217 15.344C23.3577 15.908 23.5257 16.538 23.5257 17.234C23.5257 18.05 23.2857 18.794 22.8057 19.466C22.3377 20.126 21.6117 20.576 20.6277 20.816L23.7237 26H21.2757ZM16.8297 19.358H19.0977C19.8657 19.358 20.4417 19.166 20.8257 18.782C21.2217 18.398 21.4197 17.882 21.4197 17.234C21.4197 16.586 21.2277 16.082 20.8437 15.722C20.4597 15.35 19.8777 15.164 19.0977 15.164H16.8297V19.358ZM35.2408 20.798C35.2408 21.17 35.2168 21.506 35.1688 21.806H27.5908C27.6508 22.598 27.9448 23.234 28.4728 23.714C29.0008 24.194 29.6488 24.434 30.4168 24.434C31.5208 24.434 32.3008 23.972 32.7568 23.048H34.9708C34.6708 23.96 34.1248 24.71 33.3328 25.298C32.5528 25.874 31.5808 26.162 30.4168 26.162C29.4688 26.162 28.6168 25.952 27.8608 25.532C27.1168 25.1 26.5288 24.5 26.0968 23.732C25.6768 22.952 25.4668 22.052 25.4668 21.032C25.4668 20.012 25.6708 19.118 26.0788 18.35C26.4988 17.57 27.0808 16.97 27.8248 16.55C28.5808 16.13 29.4448 15.92 30.4168 15.92C31.3528 15.92 32.1868 16.124 32.9188 16.532C33.6508 16.94 34.2208 17.516 34.6288 18.26C35.0368 18.992 35.2408 19.838 35.2408 20.798ZM33.0988 20.15C33.0868 19.394 32.8168 18.788 32.2888 18.332C31.7608 17.876 31.1068 17.648 30.3268 17.648C29.6188 17.648 29.0128 17.876 28.5088 18.332C28.0048 18.776 27.7048 19.382 27.6088 20.15H33.0988ZM49.2662 15.92C50.0462 15.92 50.7422 16.082 51.3542 16.406C51.9782 16.73 52.4642 17.21 52.8122 17.846C53.1722 18.482 53.3522 19.25 53.3522 20.15V26H51.3182V20.456C51.3182 19.568 51.0962 18.89 50.6522 18.422C50.2082 17.942 49.6022 17.702 48.8342 17.702C48.0662 17.702 47.4542 17.942 46.9982 18.422C46.5542 18.89 46.3322 19.568 46.3322 20.456V26H44.2982V20.456C44.2982 19.568 44.0762 18.89 43.6322 18.422C43.1882 17.942 42.5822 17.702 41.8142 17.702C41.0462 17.702 40.4342 17.942 39.9782 18.422C39.5342 18.89 39.3122 19.568 39.3122 20.456V26H37.2602V16.082H39.3122V17.216C39.6482 16.808 40.0742 16.49 40.5902 16.262C41.1062 16.034 41.6582 15.92 42.2462 15.92C43.0382 15.92 43.7462 16.088 44.3702 16.424C44.9942 16.76 45.4742 17.246 45.8102 17.882C46.1102 17.282 46.5782 16.808 47.2142 16.46C47.8502 16.1 48.5342 15.92 49.2662 15.92ZM60.2653 26.162C59.3293 26.162 58.4833 25.952 57.7273 25.532C56.9713 25.1 56.3773 24.5 55.9453 23.732C55.5133 22.952 55.2973 22.052 55.2973 21.032C55.2973 20.024 55.5193 19.13 55.9633 18.35C56.4073 17.57 57.0133 16.97 57.7813 16.55C58.5493 16.13 59.4073 15.92 60.3553 15.92C61.3033 15.92 62.1613 16.13 62.9293 16.55C63.6973 16.97 64.3033 17.57 64.7473 18.35C65.1913 19.13 65.4133 20.024 65.4133 21.032C65.4133 22.04 65.1853 22.934 64.7293 23.714C64.2733 24.494 63.6493 25.1 62.8573 25.532C62.0773 25.952 61.2133 26.162 60.2653 26.162ZM60.2653 24.38C60.7933 24.38 61.2853 24.254 61.7413 24.002C62.2093 23.75 62.5873 23.372 62.8753 22.868C63.1633 22.364 63.3073 21.752 63.3073 21.032C63.3073 20.312 63.1693 19.706 62.8933 19.214C62.6173 18.71 62.2513 18.332 61.7953 18.08C61.3393 17.828 60.8473 17.702 60.3193 17.702C59.7913 17.702 59.2993 17.828 58.8433 18.08C58.3993 18.332 58.0453 18.71 57.7813 19.214C57.5173 19.706 57.3853 20.312 57.3853 21.032C57.3853 22.1 57.6553 22.928 58.1953 23.516C58.7473 24.092 59.4373 24.38 60.2653 24.38ZM71.2758 24.164L74.0838 16.082H76.2618L72.4818 26H70.0338L66.2718 16.082H68.4678L71.2758 24.164ZM86.9029 20.798C86.9029 21.17 86.8789 21.506 86.8309 21.806H79.2529C79.3129 22.598 79.6069 23.234 80.1349 23.714C80.6629 24.194 81.3109 24.434 82.0789 24.434C83.1829 24.434 83.9629 23.972 84.4189 23.048H86.6329C86.3329 23.96 85.7869 24.71 84.9949 25.298C84.2149 25.874 83.2429 26.162 82.0789 26.162C81.1309 26.162 80.2789 25.952 79.5229 25.532C78.7789 25.1 78.1909 24.5 77.7589 23.732C77.3389 22.952 77.1289 22.052 77.1289 21.032C77.1289 20.012 77.3329 19.118 77.7409 18.35C78.1609 17.57 78.7429 16.97 79.4869 16.55C80.2429 16.13 81.1069 15.92 82.0789 15.92C83.0149 15.92 83.8489 16.124 84.5809 16.532C85.3129 16.94 85.8829 17.516 86.2909 18.26C86.6989 18.992 86.9029 19.838 86.9029 20.798ZM84.7609 20.15C84.7489 19.394 84.4789 18.788 83.9509 18.332C83.4229 17.876 82.7689 17.648 81.9889 17.648C81.2809 17.648 80.6749 17.876 80.1709 18.332C79.6669 18.776 79.3669 19.382 79.2709 20.15H84.7609Z" fill="black"/>
</svg>
